<?xml version="1.0" encoding="UTF-8"?>
<svg xmlns="http://www.w3.org/2000/svg" xmlns:xlink="http://www.w3.org/1999/xlink" width="133.24pt" height="205.06pt" viewBox="0 0 133.24 205.06" version="1.1">
<defs>
<clipPath id="clip1">
  <path d="M 1 35 L 133 35 L 133 205.058594 L 1 205.058594 Z M 1 35 "/>
</clipPath>
<clipPath id="clip2">
  <path d="M 99 22 L 133.238281 22 L 133.238281 58 L 99 58 Z M 99 22 "/>
</clipPath>
</defs>
<g id="surface1">
<path style=" stroke:none;fill-rule:nonzero;fill:rgb(100%,100%,100%);fill-opacity:1;" d="M 3.78125 121.476563 C 3.78125 75.453125 31.921875 38.148438 66.632813 38.148438 C 101.339844 38.148438 129.472656 75.453125 129.472656 121.476563 C 129.472656 167.5 101.339844 204.804688 66.632813 204.804688 C 31.921875 204.804688 3.78125 167.5 3.78125 121.476563 "/>
<g clip-path="url(#clip1)" clip-rule="nonzero">
<path style="fill:none;stroke-width:5.06;stroke-linecap:butt;stroke-linejoin:miter;stroke:rgb(13.299561%,11.799622%,12.199402%);stroke-opacity:1;stroke-miterlimit:3.864;" d="M 37.8125 835.834375 C 37.8125 1296.06875 319.21875 1669.115625 666.328125 1669.115625 C 1013.398438 1669.115625 1294.726563 1296.06875 1294.726563 835.834375 C 1294.726563 375.6 1013.398438 2.553125 666.328125 2.553125 C 319.21875 2.553125 37.8125 375.6 37.8125 835.834375 Z M 37.8125 835.834375 " transform="matrix(0.1,0,0,-0.1,0,205.06)"/>
</g>
<path style=" stroke:none;fill-rule:evenodd;fill:rgb(65.899658%,1.599121%,19.599915%);fill-opacity:1;" d="M 109.578125 128.144531 C 110.328125 131.359375 110.714844 134.710938 110.714844 138.152344 C 110.714844 162.363281 91.089844 181.988281 66.875 181.988281 C 42.660156 181.988281 23.035156 162.363281 23.035156 138.152344 C 23.035156 113.941406 42.660156 94.316406 66.875 94.316406 C 78.964844 94.316406 89.90625 99.207031 97.882813 107.121094 L 90.753906 114.359375 C 84.636719 108.140625 76.289063 104.417969 66.875 104.417969 C 48.242188 104.417969 33.140625 119.519531 33.140625 138.152344 C 33.140625 156.78125 48.242188 171.886719 66.875 171.886719 C 85.507813 171.886719 100.632813 156.78125 100.632813 138.152344 L 88.011719 138.152344 L 88.011719 128.15625 "/>
<path style=" stroke:none;fill-rule:evenodd;fill:rgb(99.198914%,72.198486%,7.099915%);fill-opacity:1;" d="M 59.726563 92.914063 C 56.503906 90.652344 54.375 86.910156 54.375 82.671875 C 54.375 75.769531 59.96875 70.171875 66.875 70.171875 C 73.78125 70.171875 79.375 75.769531 79.417969 82.671875 L 89.351563 82.671875 C 89.308594 70.28125 79.265625 60.238281 66.875 60.238281 C 54.484375 60.238281 44.441406 70.28125 44.441406 82.671875 C 44.441406 90.226563 48.175781 96.90625 53.898438 100.972656 L 81.011719 119.175781 C 87.851563 124.425781 90.335938 133.054688 90.335938 138.152344 C 90.335938 151.109375 79.832031 161.609375 66.875 161.609375 C 53.917969 161.609375 43.414063 151.109375 43.414063 138.152344 C 43.414063 134.789063 44.289063 131.050781 45.558594 128.15625 L 35.914063 128.15625 C 34.894531 131.296875 34.5 134.675781 34.5 138.152344 C 34.5 156.03125 48.996094 170.523438 66.875 170.523438 C 84.753906 170.523438 99.25 156.03125 99.25 138.152344 C 99.25 127.488281 94.105469 118.03125 86.15625 112.136719 "/>
<path style=" stroke:none;fill-rule:evenodd;fill:rgb(65.899658%,1.599121%,19.599915%);fill-opacity:1;" d="M 100.652344 138.152344 L 88.011719 138.152344 L 88.011719 128.15625 L 109.578125 128.148438 C 110.328125 131.359375 110.714844 134.710938 110.714844 138.152344 "/>
<path style=" stroke:none;fill-rule:evenodd;fill:rgb(13.299561%,11.799622%,12.199402%);fill-opacity:1;" d="M 55.160156 138.238281 L 53.148438 138.238281 L 53.148438 131.1875 L 50.703125 131.1875 L 50.703125 129.851563 C 51.125 129.851563 51.542969 129.808594 51.957031 129.71875 C 52.367188 129.625 52.691406 129.492188 52.933594 129.320313 C 53.183594 129.136719 53.382813 128.941406 53.535156 128.730469 C 53.703125 128.519531 53.796875 128.289063 53.824219 128.039063 L 55.160156 128.039063 "/>
<path style=" stroke:none;fill-rule:evenodd;fill:rgb(13.299561%,11.799622%,12.199402%);fill-opacity:1;" d="M 60.484375 129.460938 C 60.042969 129.460938 59.710938 129.597656 59.476563 129.867188 C 59.25 130.132813 59.09375 130.386719 59.019531 130.628906 C 58.953125 130.867188 58.917969 131.121094 58.917969 131.390625 C 58.917969 131.648438 58.953125 131.894531 59.019531 132.121094 C 59.09375 132.34375 59.253906 132.582031 59.492188 132.84375 C 59.742188 133.089844 60.089844 133.214844 60.542969 133.214844 C 60.972656 133.214844 61.308594 133.089844 61.550781 132.84375 C 61.796875 132.582031 61.957031 132.34375 62.027344 132.121094 C 62.089844 131.902344 62.125 131.664063 62.125 131.402344 C 62.125 131.085938 62.078125 130.789063 61.980469 130.511719 C 61.894531 130.226563 61.78125 130.015625 61.636719 129.878906 C 61.503906 129.746094 61.335938 129.644531 61.132813 129.578125 C 60.929688 129.5 60.714844 129.460938 60.484375 129.460938 M 59.21875 135.851563 C 59.179688 136.078125 59.273438 136.328125 59.492188 136.597656 C 59.722656 136.855469 59.996094 136.984375 60.3125 136.984375 L 60.484375 136.984375 C 60.820313 136.984375 61.105469 136.894531 61.347656 136.710938 C 61.589844 136.519531 61.75 136.304688 61.839844 136.066406 C 61.933594 135.824219 62.007813 135.570313 62.070313 135.304688 C 62.132813 135.023438 62.167969 134.773438 62.167969 134.554688 C 62.167969 134.371094 62.140625 134.199219 62.082031 134.035156 C 61.800781 134.402344 61.535156 134.625 61.277344 134.710938 C 61.027344 134.796875 60.835938 134.859375 60.703125 134.886719 C 60.578125 134.914063 60.460938 134.929688 60.355469 134.929688 L 59.910156 134.929688 C 59.753906 134.898438 59.550781 134.867188 59.292969 134.828125 C 59.042969 134.78125 58.730469 134.617188 58.355469 134.339844 C 57.980469 134.0625 57.679688 133.675781 57.449219 133.1875 C 57.226563 132.691406 57.121094 132.101563 57.121094 131.417969 C 57.121094 130.660156 57.261719 130.019531 57.550781 129.492188 C 57.847656 128.964844 58.246094 128.546875 58.746094 128.238281 C 59.246094 127.921875 59.804688 127.765625 60.425781 127.765625 C 60.597656 127.765625 60.773438 127.777344 60.945313 127.808594 C 61.347656 127.808594 61.851563 127.996094 62.457031 128.367188 C 63.070313 128.734375 63.449219 129.203125 63.589844 129.777344 C 63.773438 130.191406 63.910156 130.660156 63.996094 131.1875 C 64.089844 131.714844 64.136719 132.261719 64.136719 132.828125 C 64.136719 133.597656 64.0625 134.351563 63.910156 135.101563 C 63.765625 135.839844 63.539063 136.492188 63.230469 137.058594 C 62.933594 137.613281 62.507813 138.007813 61.953125 138.238281 C 61.398438 138.457031 60.847656 138.566406 60.3125 138.566406 C 59.25 138.566406 58.453125 138.238281 57.921875 137.574219 C 57.398438 136.914063 57.171875 136.335938 57.25 135.851563 "/>
<path style=" stroke:none;fill-rule:evenodd;fill:rgb(13.299561%,11.799622%,12.199402%);fill-opacity:1;" d="M 69.847656 136.050781 C 70.039063 135.53125 70.136719 134.578125 70.136719 133.1875 C 70.136719 131.796875 70.070313 130.917969 69.933594 130.554688 C 69.800781 130.191406 69.621094 129.949219 69.390625 129.835938 C 69.160156 129.710938 68.910156 129.648438 68.640625 129.648438 C 68.363281 129.648438 68.113281 129.707031 67.894531 129.820313 C 67.671875 129.925781 67.492188 130.167969 67.347656 130.542969 C 67.210938 130.914063 67.144531 131.796875 67.144531 133.1875 C 67.144531 134.578125 67.210938 135.457031 67.347656 135.820313 C 67.480469 136.183594 67.664063 136.429688 67.894531 136.554688 C 68.121094 136.667969 68.371094 136.726563 68.640625 136.726563 C 68.917969 136.726563 69.167969 136.671875 69.390625 136.570313 C 69.609375 136.453125 69.765625 136.28125 69.847656 136.050781 M 66.167969 137.574219 C 65.785156 137.105469 65.515625 136.496094 65.363281 135.75 C 65.207031 134.988281 65.128906 134.136719 65.128906 133.1875 C 65.128906 132.257813 65.207031 131.414063 65.363281 130.65625 C 65.515625 129.890625 65.753906 129.308594 66.078125 128.914063 C 66.40625 128.511719 66.785156 128.230469 67.21875 128.066406 C 67.648438 127.894531 68.121094 127.808594 68.640625 127.808594 C 69.152344 127.808594 69.621094 127.894531 70.050781 128.066406 C 70.492188 128.230469 70.875 128.511719 71.203125 128.914063 C 71.527344 129.308594 71.769531 129.882813 71.921875 130.644531 C 72.074219 131.390625 72.152344 132.238281 72.152344 133.1875 C 72.152344 134.117188 72.074219 134.964844 71.921875 135.734375 C 71.769531 136.492188 71.527344 137.070313 71.203125 137.476563 C 70.875 137.867188 70.496094 138.144531 70.066406 138.308594 C 69.636719 138.480469 69.160156 138.566406 68.640625 138.566406 C 68.132813 138.566406 67.660156 138.480469 67.21875 138.308594 C 66.785156 138.144531 66.433594 137.902344 66.167969 137.574219 "/>
<path style=" stroke:none;fill-rule:evenodd;fill:rgb(13.299561%,11.799622%,12.199402%);fill-opacity:1;" d="M 75.085938 135.589844 C 75.085938 135.964844 75.1875 136.273438 75.390625 136.511719 C 75.597656 136.75 76.003906 136.871094 76.597656 136.871094 C 77.121094 136.871094 77.507813 136.6875 77.746094 136.324219 C 77.984375 135.949219 78.105469 135.488281 78.105469 134.941406 C 78.105469 134.347656 78.011719 133.921875 77.816406 133.664063 C 77.636719 133.402344 77.4375 133.226563 77.214844 133.128906 C 77.003906 133.027344 76.777344 132.972656 76.539063 132.972656 L 76.382813 132.972656 C 76.121094 132.992188 75.886719 133.070313 75.675781 133.203125 C 75.476563 133.328125 75.324219 133.5 75.230469 133.722656 L 73.402344 133.722656 L 74.324219 128.039063 L 79.761719 128.039063 L 79.761719 129.851563 L 75.5625 129.851563 L 75.214844 131.949219 C 75.378906 131.847656 75.546875 131.753906 75.71875 131.679688 C 75.890625 131.589844 76.054688 131.523438 76.207031 131.476563 C 76.371094 131.429688 76.496094 131.398438 76.582031 131.390625 C 76.675781 131.371094 76.8125 131.363281 76.984375 131.363281 C 77.148438 131.363281 77.308594 131.371094 77.460938 131.390625 C 77.621094 131.410156 77.941406 131.5 78.40625 131.664063 C 78.878906 131.824219 79.285156 132.210938 79.632813 132.816406 C 79.976563 133.40625 80.148438 134.078125 80.148438 134.828125 C 80.148438 135.632813 79.976563 136.320313 79.632813 136.882813 C 79.285156 137.449219 78.882813 137.871094 78.421875 138.148438 C 77.972656 138.429688 77.371094 138.566406 76.625 138.566406 C 75.992188 138.566406 75.496094 138.5 75.144531 138.367188 C 74.796875 138.230469 74.457031 138.03125 74.121094 137.761719 C 73.796875 137.492188 73.539063 137.1875 73.359375 136.839844 C 73.1875 136.496094 73.101563 136.078125 73.101563 135.589844 "/>
<path style=" stroke:none;fill-rule:evenodd;fill:rgb(99.198914%,72.198486%,7.099915%);fill-opacity:1;" d="M 34.15625 40.597656 L 22.15625 35.1875 L 23.640625 22.613281 L 14.988281 32.226563 L 1.5 26.421875 L 8.628906 39.292969 L 0 48.871094 L 12.320313 46.109375 L 18.984375 57.445313 L 21.214844 44.171875 "/>
<g clip-path="url(#clip2)" clip-rule="nonzero">
<path style=" stroke:none;fill-rule:evenodd;fill:rgb(99.198914%,72.198486%,7.099915%);fill-opacity:1;" d="M 99.089844 40.597656 L 111.089844 35.1875 L 109.601563 22.613281 L 118.253906 32.226563 L 131.742188 26.421875 L 124.613281 39.292969 L 133.242188 48.871094 L 120.921875 46.109375 L 114.257813 57.445313 L 112.027344 44.171875 "/>
</g>
<path style=" stroke:none;fill-rule:evenodd;fill:rgb(99.198914%,72.198486%,7.099915%);fill-opacity:1;" d="M 63.023438 28.820313 L 55.449219 18.058594 L 63.128906 7.992188 L 50.785156 11.863281 L 42.128906 0.00390625 L 41.710938 14.707031 L 29.414063 18.566406 L 41.421875 22.457031 L 41.390625 35.605469 L 50.066406 25.316406 "/>
<path style=" stroke:none;fill-rule:evenodd;fill:rgb(99.198914%,72.198486%,7.099915%);fill-opacity:1;" d="M 70.238281 28.824219 L 77.816406 18.0625 L 70.136719 7.996094 L 82.476563 11.863281 L 91.136719 0.00390625 L 91.550781 14.710938 L 103.851563 18.570313 L 91.839844 22.460938 L 91.871094 35.609375 L 83.199219 25.320313 "/>
</g>
</svg>
